<svg width="18" height="19" viewBox="0 0 18 19" fill="none" xmlns="http://www.w3.org/2000/svg">
<path d="M11.75 16.4167C11.7501 16.8792 11.5754 17.3247 11.2609 17.6638C10.9464 18.003 10.5154 18.2107 10.0541 18.2454L9.91665 18.25H8.08332C7.62079 18.2502 7.1753 18.0755 6.83615 17.761C6.497 17.4465 6.28926 17.0154 6.25457 16.5542L6.24998 16.4167H11.75ZM8.99998 0.833344C10.6637 0.833316 12.2624 1.4795 13.4589 2.63558C14.6553 3.79166 15.3559 5.36726 15.413 7.03001L15.4166 7.25001V10.7003L17.0868 14.0407C17.1597 14.1864 17.1962 14.3477 17.1931 14.5106C17.1901 14.6735 17.1476 14.8333 17.0693 14.9762C16.991 15.1191 16.8792 15.2409 16.7435 15.3312C16.6078 15.4215 16.4523 15.4775 16.2902 15.4945L16.1848 15.5H1.81515C1.65213 15.5001 1.49154 15.4606 1.34712 15.385C1.2027 15.3093 1.07877 15.1998 0.985949 15.0658C0.893126 14.9318 0.834177 14.7773 0.814154 14.6155C0.794131 14.4537 0.813631 14.2895 0.870983 14.1369L0.91315 14.0407L2.58332 10.7003V7.25001C2.58332 5.5482 3.25936 3.9161 4.46271 2.71274C5.66607 1.50938 7.29818 0.833344 8.99998 0.833344Z" fill="#436475"/>
</svg>
