<svg width="22" height="24" viewBox="0 0 22 24" fill="none" xmlns="http://www.w3.org/2000/svg">
<path fill-rule="evenodd" clip-rule="evenodd" d="M14.5925 0.82953C14.4974 0.639083 14.3629 0.471052 14.1979 0.336604C14.0329 0.202156 13.8411 0.10437 13.6354 0.0497452C13.4297 -0.00487991 13.2147 -0.0150931 13.0047 0.0197842C12.7947 0.0546615 12.5945 0.13383 12.4175 0.25203C11.9 0.59703 11.4965 1.08903 11.1845 1.57203C10.8635 2.06703 10.58 2.64153 10.3295 3.24603C9.82851 4.45203 9.40851 5.89803 9.06951 7.34703C8.65954 9.11777 8.35252 10.9108 8.15001 12.717C7.53971 12.3236 7.04933 11.7699 6.73251 11.1165C6.24051 10.0965 6.13551 8.81553 6.13551 7.13553C6.13544 6.83891 6.04744 6.54896 5.88261 6.30234C5.71778 6.05573 5.48354 5.86352 5.20949 5.75001C4.93544 5.63651 4.63389 5.6068 4.34296 5.66466C4.05203 5.72251 3.78479 5.86532 3.57501 6.07503C2.59875 7.04919 1.82455 8.20659 1.29685 9.48079C0.76915 10.755 0.498353 12.1209 0.500008 13.5C0.500132 15.2267 0.926077 16.9267 1.74012 18.4495C2.55415 19.9722 3.73116 21.2707 5.16688 22.2299C6.6026 23.1892 8.25273 23.7795 9.9711 23.9487C11.6895 24.1179 13.423 23.8608 15.0183 23.2C16.6135 22.5392 18.0212 21.4952 19.1166 20.1604C20.212 18.8257 20.9613 17.2414 21.2982 15.5479C21.6351 13.8544 21.5492 12.104 21.048 10.4516C20.5468 8.79929 19.6459 7.29604 18.425 6.07503C17.537 5.18853 16.955 4.59753 16.403 3.87453C15.8585 3.16053 15.317 2.28003 14.5925 0.82953ZM14.18 19.68C13.5507 20.3086 12.7492 20.7365 11.8768 20.9098C11.0044 21.0831 10.1002 20.994 9.27847 20.6538C8.45669 20.3135 7.75417 19.7373 7.25965 18.998C6.76513 18.2587 6.50079 17.3895 6.50001 16.5C6.50001 16.5 7.81851 17.25 10.25 17.25C10.25 15.75 11 11.25 12.125 10.5C12.875 12 13.304 12.4395 14.1815 13.3185C14.6001 13.7358 14.932 14.2317 15.1583 14.7777C15.3846 15.3237 15.5007 15.909 15.5 16.5C15.5007 17.0911 15.3846 17.6764 15.1583 18.2224C14.932 18.7684 14.6001 19.2643 14.1815 19.6815L14.18 19.68Z" fill="#436475"/>
</svg>
