<svg width="26" height="26" viewBox="0 0 26 26" fill="none" xmlns="http://www.w3.org/2000/svg">
<path d="M19.25 0.5H6.75C3.3 0.5 0.5 3.2875 0.5 6.725V15.45C0.5 18.8875 3.3 21.675 6.75 21.675H8.625C8.9625 21.675 9.4125 21.9 9.625 22.175L11.5 24.6625C12.325 25.7625 13.675 25.7625 14.5 24.6625L16.375 22.175C16.6125 21.8625 16.9875 21.675 17.375 21.675H19.25C22.7 21.675 25.5 18.8875 25.5 15.45V6.725C25.5 3.2875 22.7 0.5 19.25 0.5ZM14.25 15.1875H6.75C6.2375 15.1875 5.8125 14.7625 5.8125 14.25C5.8125 13.7375 6.2375 13.3125 6.75 13.3125H14.25C14.7625 13.3125 15.1875 13.7375 15.1875 14.25C15.1875 14.7625 14.7625 15.1875 14.25 15.1875ZM19.25 8.9375H6.75C6.2375 8.9375 5.8125 8.5125 5.8125 8C5.8125 7.4875 6.2375 7.0625 6.75 7.0625H19.25C19.7625 7.0625 20.1875 7.4875 20.1875 8C20.1875 8.5125 19.7625 8.9375 19.25 8.9375Z" fill="#FE06C7"/>
</svg>
