<svg width="18" height="18" viewBox="0 0 18 18" fill="none" xmlns="http://www.w3.org/2000/svg">
<path d="M15.07 5.50901L6.50999 1.22901C0.759989 -1.65099 -1.60001 0.709005 1.27999 6.459L2.14999 8.19901C2.39999 8.70901 2.39999 9.29901 2.14999 9.80901L1.27999 11.539C-1.60001 17.289 0.749989 19.649 6.50999 16.769L15.07 12.489C18.91 10.569 18.91 7.42901 15.07 5.50901ZM11.84 9.74901H6.43999C6.02999 9.74901 5.68999 9.40901 5.68999 8.99901C5.68999 8.58901 6.02999 8.24901 6.43999 8.24901H11.84C12.25 8.24901 12.59 8.58901 12.59 8.99901C12.59 9.40901 12.25 9.74901 11.84 9.74901Z" fill="#436475"/>
</svg>
