<svg width="18" height="18" viewBox="0 0 18 18" fill="none" xmlns="http://www.w3.org/2000/svg">
<path fill-rule="evenodd" clip-rule="evenodd" d="M10.639 1.48701C10.221 -0.228988 7.77904 -0.228988 7.36104 1.48701C7.29864 1.74487 7.17623 1.98435 7.00379 2.18596C6.83134 2.38758 6.61374 2.54563 6.36867 2.64726C6.12361 2.74889 5.85801 2.79122 5.59349 2.77081C5.32898 2.7504 5.07302 2.66783 4.84644 2.52981C3.33724 1.61021 1.61024 3.33721 2.52984 4.84641C3.12384 5.82101 2.59694 7.09261 1.48814 7.36211C-0.228958 7.77901 -0.228958 10.2221 1.48814 10.6379C1.74607 10.7004 1.98559 10.8229 2.1872 10.9955C2.38882 11.1681 2.54682 11.3858 2.64836 11.631C2.74989 11.8762 2.79207 12.1419 2.77148 12.4065C2.75088 12.6711 2.66809 12.9271 2.52984 13.1536C1.61024 14.6628 3.33724 16.3898 4.84644 15.4702C5.07298 15.332 5.32896 15.2492 5.59355 15.2286C5.85813 15.208 6.12384 15.2502 6.36904 15.3517C6.61424 15.4532 6.83199 15.6112 7.00456 15.8129C7.17714 16.0145 7.29966 16.254 7.36214 16.5119C7.77904 18.229 10.2221 18.229 10.6379 16.5119C10.7006 16.2541 10.8233 16.0148 10.9959 15.8133C11.1685 15.6118 11.3862 15.4539 11.6313 15.3524C11.8765 15.2509 12.1421 15.2087 12.4066 15.2291C12.6711 15.2496 12.9271 15.3322 13.1536 15.4702C14.6628 16.3898 16.3898 14.6628 15.4702 13.1536C15.3322 12.927 15.2496 12.6711 15.2292 12.4066C15.2087 12.142 15.2509 11.8764 15.3524 11.6313C15.4539 11.3862 15.6118 11.1685 15.8133 10.9959C16.0148 10.8232 16.2542 10.7006 16.5119 10.6379C18.229 10.221 18.229 7.77791 16.5119 7.36211C16.254 7.29963 16.0145 7.17711 15.8129 7.00453C15.6113 6.83196 15.4533 6.61421 15.3517 6.36901C15.2502 6.12381 15.208 5.8581 15.2286 5.59352C15.2492 5.32893 15.332 5.07295 15.4702 4.84641C16.3898 3.33721 14.6628 1.61021 13.1536 2.52981C12.9271 2.66806 12.6711 2.75085 12.4065 2.77145C12.142 2.79204 11.8762 2.74986 11.631 2.64833C11.3858 2.54679 11.1681 2.38879 10.9955 2.18717C10.8229 1.98556 10.7004 1.74604 10.6379 1.48811L10.639 1.48701ZM9.00004 12.3C9.87526 12.3 10.7146 11.9523 11.3335 11.3335C11.9524 10.7146 12.3 9.87523 12.3 9.00001C12.3 8.1248 11.9524 7.28543 11.3335 6.66656C10.7146 6.04769 9.87526 5.70001 9.00004 5.70001C8.12483 5.70001 7.28546 6.04769 6.66659 6.66656C6.04772 7.28543 5.70004 8.1248 5.70004 9.00001C5.70004 9.87523 6.04772 10.7146 6.66659 11.3335C7.28546 11.9523 8.12483 12.3 9.00004 12.3Z" fill="#436475"/>
</svg>
